<svg width="26" height="26" viewBox="0 0 26 26" fill="none" xmlns="http://www.w3.org/2000/svg">
<path fill-rule="evenodd" clip-rule="evenodd" d="M8.29436 21.1171C8.60853 21.1171 8.86217 21.3717 8.86217 21.6849C8.86217 21.999 8.60853 22.2537 8.29436 22.2537C7.98019 22.2537 7.72656 21.999 7.72656 21.6849C7.72656 21.3717 7.98019 21.1171 8.29436 21.1171Z" fill="#A4A0A0" stroke="#A4A0A0" stroke-width="1.5" stroke-linecap="square"/>
<path fill-rule="evenodd" clip-rule="evenodd" d="M20.0678 21.1171C20.382 21.1171 20.6366 21.3717 20.6366 21.6849C20.6366 21.999 20.382 22.2537 20.0678 22.2537C19.7536 22.2537 19.5 21.999 19.5 21.6849C19.5 21.3717 19.7536 21.1171 20.0678 21.1171Z" fill="#A4A0A0" stroke="#A4A0A0" stroke-width="1.5" stroke-linecap="square"/>
<path d="M6.09523 7.06137H23.0221L21.647 17.4989H7.03598L5.65253 3.74615H2.98047" stroke="#A4A0A0" stroke-width="1.5" stroke-linecap="round" stroke-linejoin="round"/>
</svg>
