<svg width="26.000000" height="26.000000" viewBox="0 0 26 26" fill="none" xmlns="http://www.w3.org/2000/svg" xmlns:xlink="http://www.w3.org/1999/xlink">
	<desc>
			Created with Pixso.
	</desc>
	<defs/>
	<path id="Vector" d="M26 13C26 19.56 21.13 24.99 14.8 25.87C14.21 25.95 13.61 26 13 26C12.29 26 11.59 25.94 10.91 25.83C4.72 24.83 0 19.47 0 13C0 5.82 5.82 0 13 0C20.17 0 26 5.82 26 13Z" fill="#1877F2" fill-opacity="1.000000" fill-rule="nonzero"/>
	<path id="Vector" d="M14.81 10.43L14.81 13.27L18.31 13.27L17.75 17.08L14.81 17.08L14.81 25.87C14.21 25.95 13.61 25.99 13 25.99C12.29 25.99 11.59 25.94 10.91 25.83L10.91 17.08L7.68 17.08L7.68 13.27L10.91 13.27L10.91 9.8C10.91 7.65 12.66 5.91 14.81 5.91L14.81 5.91C14.81 5.91 14.82 5.91 14.82 5.91L18.31 5.91L18.31 9.21L16.03 9.21C15.35 9.21 14.81 9.76 14.81 10.43L14.81 10.43Z" fill="#FFFFFF" fill-opacity="1.000000" fill-rule="nonzero"/>
</svg>
