<svg width="100" height="66" viewBox="0 0 100 66" fill="none" xmlns="http://www.w3.org/2000/svg">
<rect width="100" height="65.9789" rx="10" fill="white"/>
<path fill-rule="evenodd" clip-rule="evenodd" d="M47.0845 15.7239C45.7637 16.1666 45.1497 17.8713 44.149 18.9224C41.6808 21.5151 39.0736 22.4029 35.9686 24.0284C31.9882 26.1324 29.8981 29.0147 26.5443 31.8768C23.2101 34.8176 19.6703 37.5566 15.9727 40.0477C28.8764 39.2047 43.656 39.5904 59.2243 41.3227C59.2246 41.2763 59.2246 41.2314 59.224 41.1875C59.2187 40.6465 59.1623 40.3431 59.1048 40.1534L59.054 40.1401C58.7635 40.0643 58.3739 39.9625 58.0655 39.8744C57.6645 39.7596 57.1437 39.6016 56.5693 39.394C55.993 39.1859 55.4266 38.9424 54.999 38.6721C54.2265 38.1836 53.9427 37.7135 53.6038 37.1514C53.5199 37.0126 53.4316 36.866 53.3525 36.7499C53.1634 36.4725 52.9066 36.1582 52.6272 35.865C52.376 35.6014 52.1156 35.3633 51.8836 35.1978C51.6753 35.0493 51.4937 34.9608 51.3434 34.907C51.1943 34.8531 51.0502 34.8251 50.9482 34.8061L50.9075 34.7987C50.5507 34.7328 50.4544 34.7152 49.7293 34.4072C49.3845 34.2611 48.881 34.0424 48.3832 33.7789C47.8272 33.4847 47.2457 33.1238 46.7816 32.7046C46.3011 32.2706 45.9544 31.7899 45.7115 31.2919C45.434 30.7224 45.2957 30.135 45.2494 29.5705C45.2087 29.0741 45.2426 28.594 45.3396 28.066C45.4263 27.593 45.5621 27.1015 45.7393 26.5234C45.7804 26.3888 45.9035 26.0018 46.034 25.5914C46.311 24.7206 46.6283 23.7228 46.8758 22.7227C47.0317 22.093 47.1542 21.4712 47.2333 20.809C47.3129 20.1417 47.3481 19.4526 47.329 18.6972C47.3065 17.8091 47.2114 16.7945 47.0845 15.7239Z" fill="#FC7361"/>
<path fill-rule="evenodd" clip-rule="evenodd" d="M84.2609 45.1875C82.9619 44.3071 80.8607 43.2666 80.1128 42.1085C78.1221 41.6 76.6595 38.1194 75.724 36.8428C74.53 35.1976 72.6489 34.6491 71.0966 33.4323C69.2556 31.9865 68.111 29.8921 66.3296 28.4463C65.0702 27.3738 63.5296 26.6794 61.8916 26.4514C59.7967 25.8897 57.877 24.7904 56.328 23.2703C54.3373 21.587 52.2405 17.73 49.6963 16.2261C49.7843 17.0696 49.8475 17.8812 49.8667 18.6376C49.8899 19.5516 49.8509 20.3565 49.7612 21.1085C49.6704 21.866 49.5274 22.5895 49.3438 23.3316C49.0926 24.3462 48.7508 25.4217 48.452 26.3601C48.3745 26.6036 48.3004 26.8365 48.1671 27.2718C48.0155 27.7676 47.9016 28.1746 47.8375 28.5255C47.7831 28.8215 47.764 29.0912 47.7868 29.3708C47.8087 29.6381 47.8729 29.913 48.0001 30.1744C48.1082 30.3959 48.2643 30.6115 48.4829 30.8092C48.7724 31.0703 49.1724 31.3155 49.5664 31.5238C50.018 31.7628 50.4325 31.9431 50.7134 32.0622C51.1786 32.2599 51.2181 32.267 51.3638 32.294L51.4046 32.3017C51.5891 32.3357 51.8537 32.3877 52.1981 32.5117C52.5411 32.6357 52.9381 32.8241 53.3557 33.122C53.7259 33.3865 54.1126 33.736 54.4676 34.1087C54.8414 34.5009 55.1899 34.9287 55.452 35.313C55.5949 35.523 55.6918 35.6829 55.7829 35.8345C55.9541 36.1184 56.0977 36.3563 56.3517 36.5168C56.6141 36.6826 57.008 36.8484 57.4238 36.9987C57.8415 37.1503 58.3453 37.3006 58.7607 37.4198C59.288 37.5707 59.5176 37.6304 59.6895 37.6753C59.9435 37.7414 60.1152 37.7863 60.2631 37.8379C60.9903 38.0932 61.0666 38.2664 61.337 38.8909L61.3385 38.89L61.3497 38.9147V38.9193L61.3517 38.9252L61.3537 38.9243C61.4978 39.2562 61.7484 39.8337 61.7617 41.1679C61.7629 41.3082 61.7617 41.458 61.758 41.6154C67.7085 42.3297 73.7641 43.2393 79.8662 44.3514C81.3451 44.6208 82.8091 44.9001 84.2609 45.1875Z" fill="#29313A"/>
<path fill-rule="evenodd" clip-rule="evenodd" d="M60.8077 8.39771C70.5679 8.39771 78.4803 16.3266 78.4803 26.1071C78.4803 28.8687 77.8491 31.4825 76.7236 33.8124C76.197 33.353 75.6201 32.9543 74.9993 32.5763C74.2856 32.1417 73.4813 31.7343 72.8256 31.2199C72.0835 30.6374 71.4442 29.8586 70.8417 29.1366C69.9891 28.1156 69.1545 27.1276 68.1204 26.2834C66.5097 24.9199 64.5533 24.0228 62.4718 23.6965C60.8997 23.2489 59.4585 22.4088 58.2902 21.2625L58.2162 21.1897L58.1368 21.1226C56.9919 20.1547 55.7504 18.3152 54.7546 17.1265C53.2251 15.3018 51.3826 13.4743 48.9844 12.946C52.116 10.1191 56.2612 8.39771 60.8077 8.39771Z" fill="#D54C3A"/>
<path d="M14.9615 49.6084V51.3518H12.6479V57.3816H10.7044V51.3518H8.39062V49.6084H14.9615ZM24.0774 57.3816H21.7739L20.1595 55.0608H19.0798V57.3816H17.1363V49.6084H20.4166C21.3695 49.6084 22.1202 49.8453 22.6685 50.3191C23.2171 50.7929 23.4912 51.4629 23.4912 52.329C23.4912 53.4691 23.0422 54.2575 22.1441 54.6943L24.0774 57.3816ZM19.0798 51.3074V53.3507H20.2109C20.6223 53.3507 20.9462 53.2636 21.1827 53.0897C21.4192 52.9157 21.5374 52.6621 21.5374 52.329C21.5374 52.0033 21.4226 51.7516 21.193 51.5739C20.9633 51.3963 20.6531 51.3074 20.2624 51.3074L19.0798 51.3074ZM31.8667 51.2852H28.1545V52.6954H31.3217V54.339H28.1545V55.7048H31.8667V57.3816H26.211V49.6084H31.8667V51.2852ZM41.4658 57.3816H39.1316L37.1675 54.4056H36.9619H36.1187V57.3816H34.1751V49.6084H36.1187V52.6511H36.8796C37.5582 52.6511 38.0878 52.3808 38.4683 51.8405C38.8488 51.3 39.039 50.556 39.039 49.6084H40.962C40.962 50.5782 40.806 51.4221 40.494 52.1402C40.1822 52.8584 39.7349 53.4099 39.1521 53.7948L41.4658 57.3816Z" fill="#29313A"/>
<path d="M47.0155 57.5704C45.8979 57.5704 44.9983 57.1965 44.3161 56.4488C43.634 55.7011 43.293 54.7165 43.293 53.495C43.293 52.266 43.6511 51.2777 44.3675 50.53C45.0839 49.7823 46.0283 49.4084 47.2005 49.4084C48.2014 49.4084 49.0412 49.6824 49.7198 50.2302C50.3985 50.778 50.827 51.5072 51.0052 52.4178H48.9589C48.6641 51.6405 48.0882 51.2518 47.2314 51.2518C46.6418 51.2518 46.167 51.4572 45.8072 51.8681C45.4472 52.279 45.2673 52.8213 45.2673 53.495C45.2673 54.1686 45.449 54.7128 45.8123 55.1274C46.1757 55.5419 46.6487 55.7492 47.2313 55.7492C47.6084 55.7492 47.9443 55.6529 48.2392 55.4605C48.5339 55.268 48.7395 55.0015 48.8561 54.661H47.1902L47.1491 53.1396H51.0567V57.3816H49.5656L49.4936 56.5598C48.8561 57.2335 48.03 57.5704 47.0155 57.5704ZM56.9025 57.5815C55.8057 57.5815 54.9487 57.2576 54.3318 56.6098C53.7148 55.962 53.4062 55.0607 53.4062 53.9058V49.6084H55.3704V53.9613C55.3704 54.5017 55.5091 54.9311 55.7869 55.2495C56.0644 55.5678 56.4364 55.727 56.9025 55.727C57.3687 55.727 57.7423 55.5678 58.0234 55.2495C58.3044 54.9311 58.445 54.5017 58.445 53.9613V49.6084H60.409V53.9058C60.409 55.0607 60.1005 55.962 59.4836 56.6098C58.8665 57.2576 58.0062 57.5815 56.9025 57.5815ZM62.841 57.3816V49.6083H64.7845V57.3816H62.841ZM67.3193 57.3816V49.6083H70.3116C71.5524 49.6083 72.5362 49.9581 73.2628 50.6577C73.9895 51.3573 74.3529 52.3031 74.3529 53.495C74.3529 54.6868 73.9895 55.6326 73.2628 56.3322C72.5362 57.0318 71.5524 57.3816 70.3116 57.3816L67.3193 57.3816ZM69.2627 55.6159H70.2293C70.8737 55.6159 71.3913 55.4216 71.782 55.0329C72.1729 54.6443 72.3682 54.1316 72.3682 53.495C72.3682 52.8583 72.1729 52.3456 71.782 51.9569C71.3913 51.5683 70.8737 51.374 70.2293 51.374H69.2627V55.6159ZM82.3685 51.2851H78.6563V52.6954H81.8234V54.3389H78.6563V55.7047H82.3685V57.3816H76.7128V49.6084H82.3685V51.2851ZM91.6077 57.3816H89.3043L87.6899 55.0607H86.6101V57.3816H84.6667V49.6083H87.9469C88.8998 49.6083 89.6505 49.8453 90.1989 50.319C90.7474 50.7928 91.0215 51.4628 91.0215 52.329C91.0215 53.469 90.5726 54.2574 89.6745 54.6943L91.6077 57.3816ZM86.6101 51.3074V53.3507H87.7412C88.1526 53.3507 88.4765 53.2636 88.713 53.0896C88.9495 52.9157 89.0677 52.6621 89.0677 52.329C89.0677 52.0032 88.9529 51.7515 88.7233 51.5739C88.4937 51.3962 88.1835 51.3074 87.7927 51.3074L86.6101 51.3074Z" fill="#FC7361"/>
</svg>
