<svg width="50" height="51" viewBox="0 0 50 51" fill="none" xmlns="http://www.w3.org/2000/svg">
<g opacity="0.5">
<path d="M49.9965 25.9903C49.9965 38.6201 40.6373 49.0614 28.4788 50.7558C27.342 50.9135 26.1789 50.9959 24.9982 50.9959C23.6354 50.9959 22.2972 50.8872 20.9939 50.677C9.09123 48.7601 0 38.4361 0 25.9903C0 12.1794 11.1932 0.98291 25 0.98291C38.8068 0.98291 50 12.1794 50 25.9903H49.9965Z" fill="#212121"/>
<path d="M28.4794 21.0631V26.5107H35.2164L34.1496 33.8489H28.4794V50.7558C27.3426 50.9135 26.1794 50.9959 24.9988 50.9959C23.636 50.9959 22.2977 50.8873 20.9945 50.677V33.8489H14.7812V26.5107H20.9945V19.8453C20.9945 15.7102 24.3454 12.3564 28.4812 12.3564V12.36C28.4934 12.36 28.5039 12.3564 28.5162 12.3564H35.2181V18.7029H30.8389C29.5374 18.7029 28.4812 19.7595 28.4812 21.0614L28.4794 21.0631Z" fill="white"/>
</g>
</svg>
