<svg width="50" height="51" viewBox="0 0 50 51" fill="none" xmlns="http://www.w3.org/2000/svg">
<g opacity="0.5">
<path d="M49.9965 25.9903C49.9965 38.6201 40.6373 49.0615 28.4788 50.7558C27.342 50.9135 26.1789 50.9959 24.9982 50.9959C23.6354 50.9959 22.2972 50.8873 20.9939 50.677C9.09123 48.7601 0 38.4361 0 25.9903C0 12.1795 11.1932 0.98291 25 0.98291C38.8068 0.98291 50 12.1795 50 25.9903H49.9965Z" fill="#212121"/>
<path d="M10.1421 12.0129L21.6717 27.4323L10.0703 39.9693H12.6821L22.8401 28.9935L31.0467 39.9693H39.933L27.7553 23.6826L38.5544 12.0129H35.9426L26.5887 22.1214L19.0302 12.0129H10.1439H10.1421ZM13.9818 13.9368H18.0632L36.0898 38.0453H32.0084L13.9818 13.9368Z" fill="white"/>
</g>
</svg>
