<svg width="26.039062" height="26.033936" viewBox="0 0 26.0391 26.0339" fill="none" xmlns="http://www.w3.org/2000/svg" xmlns:xlink="http://www.w3.org/1999/xlink">
	<desc>
			Created with Pixso.
	</desc>
	<defs>
		<clipPath id="clip3_194698">
			<rect id="icons8-google 1" rx="0.000000" width="25.000000" height="25.000000" transform="translate(0.539062 0.500000)" fill="white" fill-opacity="0"/>
		</clipPath>
	</defs>
	<path id="Vector" d="M12.96 0.03L13.03 0.03C20.19 0.03 26 5.84 26 13L26 13.06C26 20.22 20.19 26.03 13.03 26.03L12.96 26.03C5.8 26.03 0 20.22 0 13.06L0 13C0 5.84 5.8 0.03 12.96 0.03Z" fill="#FFFFFF" fill-opacity="1.000000" fill-rule="evenodd"/>
	<rect id="icons8-google 1" rx="0.000000" width="25.000000" height="25.000000" transform="translate(0.539062 0.500000)" fill="#FFFFFF" fill-opacity="0"/>
	<g clip-path="url(#clip3_194698)">
		<path id="Vector" d="M23.66 10.87L22.78 10.87L22.78 10.83L13.03 10.83L13.03 15.16L19.16 15.16C18.26 17.68 15.87 19.5 13.03 19.5C9.44 19.5 6.53 16.58 6.53 13C6.53 9.41 9.44 6.5 13.03 6.5C14.69 6.5 16.2 7.12 17.35 8.14L20.41 5.08C18.48 3.27 15.89 2.16 13.03 2.16C7.05 2.16 2.2 7.01 2.2 13C2.2 18.98 7.05 23.83 13.03 23.83C19.02 23.83 23.87 18.98 23.87 13C23.87 12.27 23.8 11.56 23.66 10.87Z" fill="#FBC02D" fill-opacity="1.000000" fill-rule="nonzero"/>
		<path id="Vector" d="M3.45 7.95L7.01 10.56C7.97 8.18 10.3 6.5 13.03 6.5C14.69 6.5 16.2 7.12 17.34 8.14L20.41 5.08C18.48 3.27 15.89 2.16 13.03 2.16C8.87 2.16 5.26 4.51 3.45 7.95Z" fill="#E53935" fill-opacity="1.000000" fill-rule="nonzero"/>
		<path id="Vector" d="M13.03 23.83C15.83 23.83 18.37 22.76 20.3 21.02L16.94 18.18C15.86 19 14.5 19.5 13.03 19.5C10.22 19.5 7.82 17.7 6.92 15.19L3.39 17.91C5.18 21.42 8.82 23.83 13.03 23.83Z" fill="#4CAF50" fill-opacity="1.000000" fill-rule="nonzero"/>
		<path id="Vector" d="M23.66 10.87L23.65 10.83L22.78 10.83L13.03 10.83L13.03 15.16L19.16 15.16C18.73 16.37 17.95 17.42 16.94 18.18L16.94 18.18L20.3 21.02C20.06 21.23 23.87 18.41 23.87 12.99C23.87 12.27 23.79 11.56 23.66 10.87Z" fill="#1565C0" fill-opacity="1.000000" fill-rule="nonzero"/>
	</g>
</svg>
