<svg width="25.992188" height="26.000000" viewBox="0 0 25.9922 26" fill="none" xmlns="http://www.w3.org/2000/svg" xmlns:xlink="http://www.w3.org/1999/xlink">
	<desc>
			Created with Pixso.
	</desc>
	<defs>
		<linearGradient x1="3.797356" y1="22.201517" x2="22.194990" y2="3.799398" id="paint_linear_3_194669_0" gradientUnits="userSpaceOnUse">
			<stop stop-color="#FAAD4F"/>
			<stop offset="0.350000" stop-color="#DD2A7B"/>
			<stop offset="0.620000" stop-color="#9537B0"/>
			<stop offset="1.000000" stop-color="#515BD4"/>
		</linearGradient>
	</defs>
	<path id="Vector" d="M12.96 0L13.02 0C20.18 0 25.99 5.8 25.99 12.97L25.99 13.02C25.99 20.19 20.18 26 13.02 26L12.96 26C5.8 26 0 20.19 0 13.02L0 12.97C0 5.8 5.8 0 12.96 0Z" fill="url(#paint_linear_3_194669_0)" fill-opacity="1.000000" fill-rule="evenodd"/>
	<path id="Vector" d="M17.01 5.28L8.97 5.28C6.75 5.28 4.94 7.09 4.94 9.32L4.94 16.68C4.94 18.9 6.75 20.71 8.97 20.71L17.01 20.71C19.23 20.71 21.04 18.9 21.04 16.68L21.04 9.32C21.04 7.09 19.23 5.28 17.01 5.28ZM6.36 9.32C6.36 7.88 7.53 6.71 8.97 6.71L17.01 6.71C18.45 6.71 19.62 7.88 19.62 9.32L19.62 16.68C19.62 18.11 18.45 19.28 17.01 19.28L8.97 19.28C7.53 19.28 6.36 18.11 6.36 16.68L6.36 9.32Z" fill="#FFFFFF" fill-opacity="1.000000" fill-rule="nonzero"/>
	<path id="Vector" d="M12.99 16.74C15.05 16.74 16.74 15.06 16.74 12.99C16.74 10.93 15.06 9.25 12.99 9.25C10.92 9.25 9.24 10.93 9.24 12.99C9.24 15.06 10.92 16.74 12.99 16.74ZM12.99 10.67C14.27 10.67 15.32 11.71 15.32 13C15.32 14.28 14.27 15.32 12.99 15.32C11.71 15.32 10.66 14.28 10.66 13C10.66 11.71 11.71 10.67 12.99 10.67Z" fill="#FFFFFF" fill-opacity="1.000000" fill-rule="nonzero"/>
	<path id="Vector" d="M17.09 9.85C17.64 9.85 18.1 9.4 18.1 8.84C18.1 8.28 17.64 7.83 17.09 7.83C16.53 7.83 16.08 8.28 16.08 8.84C16.08 9.4 16.53 9.85 17.09 9.85Z" fill="#FFFFFF" fill-opacity="1.000000" fill-rule="nonzero"/>
</svg>
