<svg width="25.992188" height="26.000000" viewBox="0 0 25.9922 26" fill="none" xmlns="http://www.w3.org/2000/svg" xmlns:xlink="http://www.w3.org/1999/xlink">
	<desc>
			Created with Pixso.
	</desc>
	<defs/>
	<path id="Vector" d="M12.96 0L13.02 0C20.18 0 25.99 5.8 25.99 12.97L25.99 13.02C25.99 20.19 20.18 26 13.02 26L12.96 26C5.8 26 0 20.19 0 13.02L0 12.97C0 5.8 5.8 0 12.96 0Z" fill="#000000" fill-opacity="1.000000" fill-rule="evenodd"/>
	<path id="Vector" d="M19.58 10.32L19.58 12.78C19.15 12.73 18.6 12.64 17.98 12.41C17.17 12.12 16.57 11.71 16.18 11.4L16.18 16.36L16.17 16.35C16.18 16.44 16.18 16.54 16.18 16.65C16.18 19.11 14.18 21.12 11.71 21.12C9.25 21.12 7.25 19.11 7.25 16.65C7.25 14.18 9.25 12.17 11.71 12.17C11.96 12.17 12.19 12.19 12.42 12.23L12.42 14.65C12.2 14.57 11.96 14.53 11.71 14.53C10.55 14.53 9.6 15.48 9.6 16.65C9.6 17.81 10.55 18.76 11.71 18.76C12.88 18.76 13.83 17.81 13.83 16.65C13.83 16.6 13.83 16.56 13.83 16.51L13.83 6.87L16.28 6.87C16.29 7.08 16.3 7.29 16.3 7.5C16.32 7.91 16.47 8.3 16.72 8.62C17.02 9 17.46 9.44 18.08 9.79C18.66 10.12 19.2 10.26 19.58 10.32L19.58 10.32Z" fill="#FF004F" fill-opacity="1.000000" fill-rule="nonzero"/>
	<path id="Vector" d="M18.74 8.33L18.74 10.78C18.31 10.74 17.75 10.64 17.14 10.42C16.33 10.12 15.73 9.72 15.34 9.41L15.34 14.37L15.33 14.35C15.33 14.45 15.34 14.55 15.34 14.65C15.34 17.12 13.33 19.12 10.87 19.12C8.41 19.12 6.4 17.12 6.4 14.65C6.4 12.19 8.41 10.18 10.87 10.18C11.11 10.18 11.35 10.2 11.58 10.24L11.58 12.66C11.36 12.58 11.12 12.54 10.87 12.54C9.7 12.54 8.75 13.48 8.75 14.65C8.75 15.82 9.7 16.77 10.87 16.77C12.04 16.77 12.99 15.82 12.99 14.65C12.99 14.61 12.98 14.57 12.98 14.52L12.98 4.88L15.44 4.88C15.44 5.09 15.45 5.29 15.46 5.5C15.48 5.91 15.62 6.3 15.88 6.63C16.17 7 16.62 7.44 17.23 7.79C17.81 8.12 18.35 8.26 18.74 8.33Z" fill="#00F7EF" fill-opacity="1.000000" fill-rule="nonzero"/>
	<path id="Vector" d="M19.28 9.4L19.28 11.86C18.85 11.81 18.29 11.72 17.67 11.49C16.87 11.2 16.27 10.79 15.88 10.48L15.88 15.44L15.87 15.43C15.87 15.52 15.88 15.62 15.88 15.73C15.88 18.19 13.87 20.2 11.41 20.2C8.94 20.2 6.94 18.19 6.94 15.73C6.94 13.26 8.94 11.25 11.41 11.25C11.65 11.25 11.89 11.27 12.12 11.31L12.12 13.73C11.9 13.65 11.66 13.61 11.41 13.61C10.24 13.61 9.29 14.56 9.29 15.73C9.29 16.89 10.24 17.84 11.41 17.84C12.58 17.84 13.53 16.89 13.53 15.73C13.53 15.68 13.52 15.64 13.52 15.59L13.52 5.95L15.98 5.95C15.98 6.16 15.99 6.37 16 6.58C16.02 6.99 16.16 7.38 16.42 7.7C16.71 8.08 17.16 8.52 17.77 8.87C18.35 9.2 18.89 9.34 19.28 9.4L19.28 9.4Z" fill="#FFFFFF" fill-opacity="1.000000" fill-rule="nonzero"/>
</svg>
