<svg width="84" height="50" viewBox="0 0 84 50" fill="none" xmlns="http://www.w3.org/2000/svg">
<path fill-rule="evenodd" clip-rule="evenodd" d="M39.0845 7.73431C37.7637 8.17702 37.1497 9.88174 36.149 10.9328C33.6808 13.5256 31.0736 14.4134 27.9686 16.0388C23.9882 18.1428 21.8981 21.0251 18.5443 23.8873C15.2101 26.828 11.6703 29.5671 7.97266 32.0581C20.8764 31.2151 35.656 31.6009 51.2243 33.3331C51.2246 33.2867 51.2246 33.2418 51.224 33.1979C51.2187 32.6569 51.1623 32.3535 51.1048 32.1639L51.054 32.1505C50.7635 32.0748 50.3739 31.973 50.0655 31.8849C49.6645 31.7701 49.1437 31.6121 48.5693 31.4044C47.993 31.1963 47.4266 30.9529 46.999 30.6826C46.2265 30.1941 45.9427 29.7239 45.6038 29.1619C45.5199 29.023 45.4316 28.8764 45.3525 28.7604C45.1634 28.483 44.9066 28.1686 44.6272 27.8754C44.376 27.6118 44.1156 27.3737 43.8836 27.2082C43.6753 27.0597 43.4937 26.9712 43.3434 26.9174C43.1943 26.8636 43.0502 26.8355 42.9482 26.8166L42.9075 26.8092C42.5507 26.7432 42.4544 26.7256 41.7293 26.4176C41.3845 26.2715 40.881 26.0528 40.3832 25.7894C39.8272 25.4952 39.2457 25.1342 38.7816 24.7151C38.3011 24.281 37.9544 23.8004 37.7115 23.3023C37.434 22.7328 37.2957 22.1454 37.2494 21.581C37.2087 21.0845 37.2426 20.6044 37.3396 20.0764C37.4263 19.6035 37.5621 19.1119 37.7393 18.5338C37.7804 18.3992 37.9035 18.0123 38.034 17.6018C38.311 16.7311 38.6283 15.7332 38.8758 14.7331C39.0317 14.1034 39.1542 13.4816 39.2333 12.8194C39.3129 12.1521 39.3481 11.463 39.329 10.7077C39.3065 9.81952 39.2114 8.80492 39.0845 7.73431Z" fill="#FC7361"/>
<path fill-rule="evenodd" clip-rule="evenodd" d="M76.2648 37.1976C74.9658 36.3173 72.8646 35.2767 72.1167 34.1186C70.126 33.6101 68.6635 30.1295 67.7279 28.853C66.5339 27.2077 64.6528 26.6592 63.1005 25.4424C61.2595 23.9966 60.1149 21.9022 58.3335 20.4564C57.0741 19.384 55.5335 18.6895 53.8955 18.4616C51.8006 17.8999 49.8809 16.8005 48.3319 15.2804C46.3412 13.5971 44.2444 9.74013 41.7002 8.23621C41.7882 9.07971 41.8514 9.89138 41.8706 10.6477C41.8938 11.5617 41.8548 12.3667 41.7651 13.1186C41.6743 13.8761 41.5313 14.5997 41.3477 15.3417C41.0965 16.3563 40.7547 17.4318 40.4559 18.3703C40.3784 18.6138 40.3043 18.8467 40.171 19.2819C40.0194 19.7778 39.9055 20.1848 39.8414 20.5356C39.787 20.8316 39.7679 21.1013 39.7907 21.3809C39.8126 21.6482 39.8768 21.9232 40.004 22.1846C40.1121 22.406 40.2682 22.6216 40.4868 22.8193C40.7763 23.0804 41.1764 23.3256 41.5703 23.5339C42.0219 23.7729 42.4364 23.9533 42.7173 24.0724C43.1825 24.2701 43.222 24.2772 43.3677 24.3041L43.4085 24.3118C43.593 24.3458 43.8576 24.3978 44.202 24.5218C44.545 24.6459 44.942 24.8342 45.3596 25.1322C45.7298 25.3966 46.1165 25.7461 46.4715 26.1189C46.8453 26.5111 47.1938 26.9389 47.4559 27.3231C47.5988 27.5331 47.6957 27.693 47.7868 27.8446C47.958 28.1285 48.1016 28.3664 48.3556 28.527C48.6181 28.6928 49.0119 28.8586 49.4277 29.0089C49.8454 29.1605 50.3492 29.3108 50.7646 29.4299C51.2919 29.5808 51.5215 29.6405 51.6934 29.6854C51.9474 29.7515 52.1191 29.7964 52.267 29.8481C52.9942 30.1033 53.0705 30.2765 53.3409 30.901L53.3424 30.9001L53.3536 30.9248V30.9295L53.3557 30.9353L53.3576 30.9345C53.5017 31.2663 53.7523 31.8438 53.7656 33.178C53.7668 33.3184 53.7656 33.4681 53.7619 33.6255C59.7124 34.3398 65.7681 35.2495 71.8701 36.3616C73.349 36.6309 74.813 36.9103 76.2648 37.1976Z" fill="#212121"/>
<path fill-rule="evenodd" clip-rule="evenodd" d="M52.8077 0.408081C62.5679 0.408081 70.4803 8.33695 70.4803 18.1175C70.4803 20.8791 69.8491 23.4928 68.7236 25.8228C68.197 25.3634 67.6201 24.9647 66.9993 24.5867C66.2856 24.1521 65.4813 23.7447 64.8256 23.2302C64.0835 22.6478 63.4442 21.869 62.8417 21.147C61.9891 20.1259 61.1545 19.1379 60.1204 18.2937C58.5097 16.9303 56.5533 16.0332 54.4718 15.7069C52.8997 15.2593 51.4585 14.4192 50.2902 13.2729L50.2162 13.2001L50.1368 13.133C48.9919 12.1651 47.7504 10.3256 46.7546 9.13688C45.2251 7.31213 43.3826 5.48465 40.9844 4.95636C44.116 2.12947 48.2612 0.408081 52.8077 0.408081Z" fill="#FC7361"/>
<path d="M6.96153 41.6187V43.362H4.64785V49.3919H2.70439V43.362H0.390625V41.6187H6.96153ZM16.0774 49.3919H13.7739L12.1595 47.071H11.0798V49.3919H9.13633V41.6187H12.4166C13.3695 41.6187 14.1202 41.8556 14.6685 42.3293C15.2171 42.8032 15.4912 43.4731 15.4912 44.3393C15.4912 45.4793 15.0422 46.2678 14.1441 46.7046L16.0774 49.3919ZM11.0798 43.3177V45.361H12.2109C12.6223 45.361 12.9462 45.2739 13.1827 45.0999C13.4192 44.926 13.5374 44.6724 13.5374 44.3393C13.5374 44.0135 13.4226 43.7618 13.193 43.5842C12.9633 43.4065 12.6531 43.3177 12.2624 43.3177L11.0798 43.3177ZM23.8667 43.2954H20.1545V44.7057H23.3217V46.3492H20.1545V47.7151H23.8667V49.3919H18.211V41.6187H23.8667V43.2954ZM33.4658 49.3919H31.1316L29.1675 46.4159H28.9619H28.1187V49.3919H26.1751V41.6187H28.1187V44.6613H28.8796C29.5582 44.6613 30.0878 44.3911 30.4683 43.8507C30.8488 43.3102 31.039 42.5663 31.039 41.6187H32.962C32.962 42.5884 32.806 43.4324 32.494 44.1505C32.1822 44.8686 31.7349 45.4201 31.1521 45.8051L33.4658 49.3919Z" fill="#212121"/>
<path d="M39.0155 49.5807C37.8979 49.5807 36.9983 49.2069 36.3161 48.4592C35.634 47.7114 35.293 46.7268 35.293 45.5053C35.293 44.2764 35.6511 43.2881 36.3675 42.5404C37.0839 41.7927 38.0283 41.4188 39.2005 41.4188C40.2014 41.4188 41.0412 41.6927 41.7198 42.2406C42.3985 42.7884 42.827 43.5176 43.0052 44.4282H40.9589C40.6641 43.6509 40.0882 43.2622 39.2314 43.2622C38.6418 43.2622 38.167 43.4676 37.8072 43.8785C37.4472 44.2894 37.2673 44.8317 37.2673 45.5053C37.2673 46.179 37.449 46.7232 37.8123 47.1377C38.1757 47.5523 38.6487 47.7596 39.2313 47.7596C39.6084 47.7596 39.9443 47.6633 40.2392 47.4708C40.5339 47.2784 40.7395 47.0119 40.8561 46.6713H39.1902L39.1491 45.15H43.0567V49.392H41.5656L41.4936 48.5702C40.8561 49.2439 40.03 49.5807 39.0155 49.5807ZM48.9025 49.5919C47.8057 49.5919 46.9487 49.268 46.3318 48.6202C45.7148 47.9724 45.4062 47.0711 45.4062 45.9162V41.6187H47.3704V45.9717C47.3704 46.5121 47.5091 46.9415 47.7869 47.2599C48.0644 47.5782 48.4364 47.7374 48.9025 47.7374C49.3687 47.7374 49.7423 47.5782 50.0234 47.2599C50.3044 46.9415 50.445 46.5121 50.445 45.9717V41.6187H52.409V45.9162C52.409 47.0711 52.1005 47.9724 51.4836 48.6202C50.8665 49.268 50.0062 49.5919 48.9025 49.5919ZM54.841 49.392V41.6187H56.7845V49.392H54.841ZM59.3193 49.392V41.6187H62.3116C63.5524 41.6187 64.5362 41.9685 65.2628 42.6681C65.9895 43.3677 66.3529 44.3135 66.3529 45.5053C66.3529 46.6972 65.9895 47.6429 65.2628 48.3426C64.5362 49.0422 63.5524 49.3919 62.3116 49.3919L59.3193 49.392ZM61.2627 47.6263H62.2293C62.8737 47.6263 63.3913 47.432 63.782 47.0433C64.1729 46.6547 64.3682 46.142 64.3682 45.5053C64.3682 44.8687 64.1729 44.356 63.782 43.9673C63.3913 43.5787 62.8737 43.3844 62.2293 43.3844H61.2627V47.6263ZM74.3685 43.2955H70.6563V44.7058H73.8234V46.3493H70.6563V47.7151H74.3685V49.392H68.7128V41.6187H74.3685V43.2955ZM83.6077 49.392H81.3043L79.6899 47.0711H78.6101V49.392H76.6667V41.6187H79.9469C80.8998 41.6187 81.6505 41.8556 82.1989 42.3294C82.7474 42.8032 83.0215 43.4732 83.0215 44.3393C83.0215 45.4794 82.5726 46.2678 81.6745 46.7047L83.6077 49.392ZM78.6101 43.3178V45.361H79.7412C80.1526 45.361 80.4765 45.274 80.713 45.1C80.9495 44.926 81.0677 44.6725 81.0677 44.3393C81.0677 44.0136 80.9529 43.7619 80.7233 43.5842C80.4937 43.4066 80.1835 43.3178 79.7927 43.3178L78.6101 43.3178Z" fill="#FC7361"/>
</svg>
