<svg width="26.000000" height="26.000000" viewBox="0 0 26 26" fill="none" xmlns="http://www.w3.org/2000/svg" xmlns:xlink="http://www.w3.org/1999/xlink">
	<desc>
			Created with Pixso.
	</desc>
	<defs/>
	<path id="Vector" d="M26 13C26 19.56 21.13 24.99 14.8 25.87C14.21 25.95 13.61 26 13 26C12.28 26 11.59 25.94 10.91 25.83C4.72 24.83 0 19.47 0 13C0 5.82 5.82 0 13 0C20.17 0 26 5.82 26 13L26 13Z" fill="#1C1C1B" fill-opacity="1.000000" fill-rule="nonzero"/>
	<path id="path1009" d="M5.27 5.73L11.26 13.74L5.23 20.26L6.59 20.26L11.87 14.56L16.14 20.26L20.76 20.26L14.42 11.8L20.04 5.73L18.68 5.73L13.82 10.98L9.89 5.73L5.27 5.73L5.27 5.73ZM7.26 6.73L9.39 6.73L18.76 19.26L16.64 19.26L7.26 6.73Z" fill="#FFFFFF" fill-opacity="1.000000" fill-rule="nonzero"/>
</svg>
