<svg width="25.992188" height="26.000000" viewBox="0 0 25.9922 26" fill="none" xmlns="http://www.w3.org/2000/svg" xmlns:xlink="http://www.w3.org/1999/xlink">
	<desc>
			Created with Pixso.
	</desc>
	<defs/>
	<path id="Vector" d="M12.99 0C20.17 0 25.99 5.82 25.99 13C25.99 20.17 20.17 26 12.99 26C5.82 26 0 20.17 0 13C0 5.82 5.82 0 12.99 0Z" fill="#FF0209" fill-opacity="1.000000" fill-rule="evenodd"/>
	<path id="Vector" d="M18.51 18.75C18.12 18.79 17.72 18.8 17.34 18.8C14.38 18.8 11.42 18.8 8.45 18.79C7.52 18.79 6.51 18.76 5.78 18.17C4.97 17.5 4.8 16.34 4.74 15.29C4.65 13.85 4.64 12.41 4.71 10.97C4.76 10.17 4.83 9.36 5.17 8.65C5.41 8.13 5.82 7.67 6.34 7.43C6.95 7.15 7.58 7.2 8.24 7.2C9.8 7.19 11.37 7.19 12.94 7.19C14.56 7.19 16.19 7.19 17.82 7.19C18.59 7.19 19.41 7.2 20.04 7.65C20.85 8.22 21.07 9.31 21.17 10.3C21.36 12.12 21.36 13.96 21.18 15.77C21.1 16.52 20.98 17.32 20.48 17.89C20 18.45 19.27 18.67 18.51 18.75L18.51 18.75Z" fill="#FFFFFF" fill-opacity="1.000000" fill-rule="nonzero"/>
	<path id="Vector" d="M15.64 13L11.22 10.44L11.22 15.55L15.64 13Z" fill="#FF0209" fill-opacity="1.000000" fill-rule="nonzero"/>
</svg>
